<svg width="138" height="40" viewBox="0 0 138 40" fill="none" xmlns="http://www.w3.org/2000/svg">
<g clip-path="url(#clip0_28_21)">
<path d="M19.9445 0.00194105C19.815 0.0110424 19.6898 0.0519369 19.5798 0.120997C19.4699 0.190057 19.3787 0.285171 19.3143 0.397887L2.40627 29.9869C2.31807 30.1413 2.26228 30.312 2.24231 30.4886C2.22234 30.6652 2.2386 30.8441 2.29011 31.0142C2.34162 31.1843 2.42729 31.3422 2.54188 31.4781C2.65647 31.614 2.79758 31.7251 2.95657 31.8046L18.764 39.7083C19.1477 39.9001 19.5708 40 19.9998 40C20.4289 40 20.852 39.9001 21.2357 39.7083L37.0431 31.8046C37.2021 31.7251 37.3432 31.614 37.4578 31.4781C37.5724 31.3422 37.6581 31.1843 37.7096 31.0142C37.7611 30.8441 37.7773 30.6652 37.7574 30.4886C37.7374 30.312 37.6816 30.1413 37.5934 29.9869L20.6854 0.397887C20.6117 0.26886 20.503 0.163239 20.372 0.0931997C20.2409 0.0231603 20.0927 -0.00847164 19.9445 0.00194105ZM19.9998 2.85398L35.5371 30.2727L19.9998 37.5843V2.85398Z" fill="#061D44"/>
</g>
<path d="M48.494 19.162C47.726 19.162 47.06 18.97 46.496 18.586C45.932 18.19 45.554 17.668 45.362 17.02L45.56 16.696V18.208C45.56 18.496 45.482 18.724 45.326 18.892C45.17 19.048 44.954 19.126 44.678 19.126C44.39 19.126 44.168 19.048 44.012 18.892C43.856 18.724 43.778 18.496 43.778 18.208V7.102C43.778 6.802 43.856 6.574 44.012 6.418C44.168 6.262 44.39 6.184 44.678 6.184C44.966 6.184 45.188 6.262 45.344 6.418C45.512 6.574 45.596 6.802 45.596 7.102V12.142H45.38C45.572 11.506 45.95 11.002 46.514 10.63C47.078 10.246 47.738 10.054 48.494 10.054C49.286 10.054 49.97 10.24 50.546 10.612C51.122 10.984 51.566 11.506 51.878 12.178C52.202 12.85 52.364 13.66 52.364 14.608C52.364 15.532 52.202 16.342 51.878 17.038C51.566 17.722 51.116 18.25 50.528 18.622C49.952 18.982 49.274 19.162 48.494 19.162ZM48.044 17.758C48.548 17.758 48.986 17.638 49.358 17.398C49.73 17.158 50.018 16.804 50.222 16.336C50.426 15.868 50.528 15.292 50.528 14.608C50.528 13.576 50.3 12.796 49.844 12.268C49.4 11.74 48.8 11.476 48.044 11.476C47.552 11.476 47.114 11.596 46.73 11.836C46.358 12.064 46.07 12.412 45.866 12.88C45.662 13.348 45.56 13.924 45.56 14.608C45.56 15.628 45.788 16.408 46.244 16.948C46.7 17.488 47.3 17.758 48.044 17.758ZM57.0408 19.162C56.4288 19.162 55.8768 19.042 55.3848 18.802C54.9048 18.562 54.5268 18.238 54.2508 17.83C53.9748 17.422 53.8368 16.96 53.8368 16.444C53.8368 15.796 53.9988 15.286 54.3228 14.914C54.6588 14.53 55.2048 14.26 55.9608 14.104C56.7288 13.936 57.7608 13.852 59.0568 13.852H59.9028V14.968H59.0748C58.2108 14.968 57.5268 15.01 57.0228 15.094C56.5188 15.178 56.1588 15.322 55.9428 15.526C55.7388 15.718 55.6368 15.988 55.6368 16.336C55.6368 16.792 55.7928 17.164 56.1048 17.452C56.4168 17.728 56.8488 17.866 57.4008 17.866C57.8448 17.866 58.2348 17.764 58.5708 17.56C58.9068 17.344 59.1708 17.056 59.3628 16.696C59.5668 16.336 59.6688 15.922 59.6688 15.454V13.384C59.6688 12.7 59.5248 12.208 59.2368 11.908C58.9488 11.608 58.4748 11.458 57.8148 11.458C57.4308 11.458 57.0288 11.506 56.6088 11.602C56.2008 11.698 55.7748 11.86 55.3308 12.088C55.1268 12.184 54.9528 12.214 54.8088 12.178C54.6648 12.142 54.5508 12.064 54.4668 11.944C54.3828 11.812 54.3348 11.674 54.3228 11.53C54.3228 11.374 54.3588 11.224 54.4308 11.08C54.5148 10.936 54.6528 10.828 54.8448 10.756C55.3728 10.504 55.8948 10.324 56.4108 10.216C56.9268 10.108 57.4128 10.054 57.8688 10.054C58.6728 10.054 59.3328 10.18 59.8488 10.432C60.3768 10.684 60.7668 11.068 61.0188 11.584C61.2708 12.1 61.3968 12.766 61.3968 13.582V18.208C61.3968 18.496 61.3248 18.724 61.1808 18.892C61.0368 19.048 60.8268 19.126 60.5508 19.126C60.2868 19.126 60.0768 19.048 59.9208 18.892C59.7648 18.724 59.6868 18.496 59.6868 18.208V17.038H59.8488C59.7528 17.482 59.5728 17.866 59.3088 18.19C59.0568 18.502 58.7388 18.742 58.3548 18.91C57.9708 19.078 57.5328 19.162 57.0408 19.162ZM66.7987 19.162C66.2707 19.162 65.7247 19.102 65.1607 18.982C64.6087 18.862 64.0987 18.658 63.6307 18.37C63.4747 18.262 63.3667 18.142 63.3067 18.01C63.2467 17.878 63.2227 17.746 63.2347 17.614C63.2587 17.47 63.3127 17.35 63.3967 17.254C63.4927 17.146 63.6067 17.08 63.7387 17.056C63.8827 17.032 64.0327 17.062 64.1887 17.146C64.6567 17.41 65.1067 17.596 65.5387 17.704C65.9707 17.8 66.3967 17.848 66.8167 17.848C67.4527 17.848 67.9327 17.734 68.2567 17.506C68.5807 17.278 68.7427 16.972 68.7427 16.588C68.7427 16.276 68.6347 16.036 68.4187 15.868C68.2027 15.688 67.8787 15.55 67.4467 15.454L65.7367 15.112C64.9927 14.956 64.4287 14.68 64.0447 14.284C63.6607 13.888 63.4687 13.384 63.4687 12.772C63.4687 12.22 63.6187 11.74 63.9187 11.332C64.2187 10.924 64.6387 10.612 65.1787 10.396C65.7187 10.168 66.3427 10.054 67.0507 10.054C67.5787 10.054 68.0767 10.12 68.5447 10.252C69.0127 10.384 69.4447 10.582 69.8407 10.846C69.9967 10.93 70.0987 11.044 70.1467 11.188C70.1947 11.32 70.2007 11.452 70.1647 11.584C70.1407 11.716 70.0807 11.836 69.9847 11.944C69.8887 12.04 69.7687 12.1 69.6247 12.124C69.4927 12.136 69.3427 12.1 69.1747 12.016C68.8147 11.788 68.4547 11.626 68.0947 11.53C67.7467 11.434 67.3987 11.386 67.0507 11.386C66.4147 11.386 65.9347 11.506 65.6107 11.746C65.2987 11.974 65.1427 12.286 65.1427 12.682C65.1427 12.982 65.2387 13.228 65.4307 13.42C65.6227 13.612 65.9227 13.75 66.3307 13.834L68.0407 14.176C68.8207 14.332 69.4087 14.596 69.8047 14.968C70.2127 15.34 70.4167 15.844 70.4167 16.48C70.4167 17.308 70.0867 17.962 69.4267 18.442C68.7667 18.922 67.8907 19.162 66.7987 19.162ZM76.3815 19.162C75.4215 19.162 74.5935 18.982 73.8975 18.622C73.2135 18.25 72.6795 17.728 72.2955 17.056C71.9235 16.372 71.7375 15.562 71.7375 14.626C71.7375 13.714 71.9235 12.916 72.2955 12.232C72.6675 11.548 73.1775 11.014 73.8255 10.63C74.4735 10.246 75.2115 10.054 76.0395 10.054C76.6515 10.054 77.1975 10.156 77.6775 10.36C78.1575 10.552 78.5655 10.84 78.9015 11.224C79.2495 11.596 79.5075 12.052 79.6755 12.592C79.8555 13.132 79.9455 13.738 79.9455 14.41C79.9455 14.614 79.8855 14.77 79.7655 14.878C79.6455 14.974 79.4655 15.022 79.2255 15.022H73.1775V13.906H78.7215L78.4155 14.158C78.4155 13.558 78.3255 13.048 78.1455 12.628C77.9775 12.208 77.7195 11.89 77.3715 11.674C77.0355 11.446 76.6155 11.332 76.1115 11.332C75.5475 11.332 75.0675 11.464 74.6715 11.728C74.2875 11.992 73.9935 12.358 73.7895 12.826C73.5855 13.294 73.4835 13.84 73.4835 14.464V14.572C73.4835 15.628 73.7295 16.426 74.2215 16.966C74.7255 17.494 75.4515 17.758 76.3995 17.758C76.7595 17.758 77.1375 17.71 77.5335 17.614C77.9415 17.518 78.3255 17.356 78.6855 17.128C78.8895 17.008 79.0695 16.954 79.2255 16.966C79.3935 16.978 79.5255 17.032 79.6215 17.128C79.7295 17.224 79.7955 17.344 79.8195 17.488C79.8435 17.632 79.8195 17.782 79.7475 17.938C79.6755 18.082 79.5495 18.214 79.3695 18.334C78.9615 18.61 78.4875 18.82 77.9475 18.964C77.4075 19.096 76.8855 19.162 76.3815 19.162ZM44.714 33.126C44.426 33.126 44.204 33.048 44.048 32.892C43.892 32.724 43.814 32.496 43.814 32.208V25.008C43.814 24.708 43.892 24.48 44.048 24.324C44.204 24.168 44.42 24.09 44.696 24.09C44.984 24.09 45.2 24.168 45.344 24.324C45.5 24.48 45.578 24.708 45.578 25.008V26.484L45.38 26.088C45.62 25.452 45.992 24.954 46.496 24.594C47 24.234 47.606 24.054 48.314 24.054C49.046 24.054 49.64 24.228 50.096 24.576C50.552 24.924 50.864 25.458 51.032 26.178H50.78C51.008 25.518 51.398 25.002 51.95 24.63C52.502 24.246 53.144 24.054 53.876 24.054C54.548 24.054 55.1 24.186 55.532 24.45C55.964 24.702 56.288 25.092 56.504 25.62C56.72 26.136 56.828 26.79 56.828 27.582V32.208C56.828 32.496 56.744 32.724 56.576 32.892C56.42 33.048 56.198 33.126 55.91 33.126C55.622 33.126 55.4 33.048 55.244 32.892C55.088 32.724 55.01 32.496 55.01 32.208V27.672C55.01 26.928 54.878 26.382 54.614 26.034C54.362 25.686 53.942 25.512 53.354 25.512C52.694 25.512 52.172 25.74 51.788 26.196C51.404 26.652 51.212 27.282 51.212 28.086V32.208C51.212 32.496 51.134 32.724 50.978 32.892C50.822 33.048 50.6 33.126 50.312 33.126C50.024 33.126 49.796 33.048 49.628 32.892C49.472 32.724 49.394 32.496 49.394 32.208V27.672C49.394 26.928 49.268 26.382 49.016 26.034C48.764 25.686 48.344 25.512 47.756 25.512C47.096 25.512 46.574 25.74 46.19 26.196C45.818 26.652 45.632 27.282 45.632 28.086V32.208C45.632 32.82 45.326 33.126 44.714 33.126ZM61.9978 33.162C61.3858 33.162 60.8338 33.042 60.3418 32.802C59.8618 32.562 59.4838 32.238 59.2078 31.83C58.9318 31.422 58.7938 30.96 58.7938 30.444C58.7938 29.796 58.9558 29.286 59.2798 28.914C59.6158 28.53 60.1618 28.26 60.9178 28.104C61.6858 27.936 62.7178 27.852 64.0138 27.852H64.8598V28.968H64.0318C63.1678 28.968 62.4838 29.01 61.9798 29.094C61.4758 29.178 61.1158 29.322 60.8998 29.526C60.6958 29.718 60.5938 29.988 60.5938 30.336C60.5938 30.792 60.7498 31.164 61.0618 31.452C61.3738 31.728 61.8058 31.866 62.3578 31.866C62.8018 31.866 63.1918 31.764 63.5278 31.56C63.8638 31.344 64.1278 31.056 64.3198 30.696C64.5238 30.336 64.6258 29.922 64.6258 29.454V27.384C64.6258 26.7 64.4818 26.208 64.1938 25.908C63.9058 25.608 63.4318 25.458 62.7718 25.458C62.3878 25.458 61.9858 25.506 61.5658 25.602C61.1578 25.698 60.7318 25.86 60.2878 26.088C60.0838 26.184 59.9098 26.214 59.7658 26.178C59.6218 26.142 59.5078 26.064 59.4238 25.944C59.3398 25.812 59.2918 25.674 59.2798 25.53C59.2798 25.374 59.3158 25.224 59.3878 25.08C59.4718 24.936 59.6098 24.828 59.8018 24.756C60.3298 24.504 60.8518 24.324 61.3678 24.216C61.8838 24.108 62.3698 24.054 62.8258 24.054C63.6298 24.054 64.2898 24.18 64.8058 24.432C65.3338 24.684 65.7238 25.068 65.9758 25.584C66.2278 26.1 66.3538 26.766 66.3538 27.582V32.208C66.3538 32.496 66.2818 32.724 66.1378 32.892C65.9938 33.048 65.7838 33.126 65.5078 33.126C65.2438 33.126 65.0338 33.048 64.8778 32.892C64.7218 32.724 64.6438 32.496 64.6438 32.208V31.038H64.8058C64.7098 31.482 64.5298 31.866 64.2658 32.19C64.0138 32.502 63.6958 32.742 63.3118 32.91C62.9278 33.078 62.4898 33.162 61.9978 33.162ZM72.4218 33.162C71.7018 33.162 71.0958 33.036 70.6038 32.784C70.1118 32.532 69.7458 32.16 69.5058 31.668C69.2658 31.176 69.1458 30.576 69.1458 29.868V25.62H68.0658C67.8258 25.62 67.6398 25.56 67.5078 25.44C67.3758 25.308 67.3098 25.134 67.3098 24.918C67.3098 24.69 67.3758 24.516 67.5078 24.396C67.6398 24.276 67.8258 24.216 68.0658 24.216H69.1458V22.362C69.1458 22.062 69.2238 21.834 69.3798 21.678C69.5478 21.522 69.7758 21.444 70.0638 21.444C70.3518 21.444 70.5738 21.522 70.7298 21.678C70.8858 21.834 70.9638 22.062 70.9638 22.362V24.216H73.0698C73.3098 24.216 73.4958 24.276 73.6278 24.396C73.7598 24.516 73.8258 24.69 73.8258 24.918C73.8258 25.134 73.7598 25.308 73.6278 25.44C73.4958 25.56 73.3098 25.62 73.0698 25.62H70.9638V29.724C70.9638 30.36 71.0958 30.84 71.3598 31.164C71.6358 31.488 72.0798 31.65 72.6918 31.65C72.9078 31.65 73.0938 31.632 73.2498 31.596C73.4178 31.548 73.5558 31.518 73.6638 31.506C73.7958 31.506 73.9038 31.554 73.9878 31.65C74.0718 31.734 74.1138 31.902 74.1138 32.154C74.1138 32.334 74.0778 32.502 74.0058 32.658C73.9458 32.814 73.8318 32.916 73.6638 32.964C73.5198 33.012 73.3218 33.054 73.0698 33.09C72.8298 33.138 72.6138 33.162 72.4218 33.162ZM79.1061 33.162C78.1461 33.162 77.3181 32.982 76.6221 32.622C75.9381 32.25 75.4041 31.728 75.0201 31.056C74.6481 30.372 74.4621 29.562 74.4621 28.626C74.4621 27.714 74.6481 26.916 75.0201 26.232C75.3921 25.548 75.9021 25.014 76.5501 24.63C77.1981 24.246 77.9361 24.054 78.7641 24.054C79.3761 24.054 79.9221 24.156 80.4021 24.36C80.8821 24.552 81.2901 24.84 81.6261 25.224C81.9741 25.596 82.2321 26.052 82.4001 26.592C82.5801 27.132 82.6701 27.738 82.6701 28.41C82.6701 28.614 82.6101 28.77 82.4901 28.878C82.3701 28.974 82.1901 29.022 81.9501 29.022H75.9021V27.906H81.4461L81.1401 28.158C81.1401 27.558 81.0501 27.048 80.8701 26.628C80.7021 26.208 80.4441 25.89 80.0961 25.674C79.7601 25.446 79.3401 25.332 78.8361 25.332C78.2721 25.332 77.7921 25.464 77.3961 25.728C77.0121 25.992 76.7181 26.358 76.5141 26.826C76.3101 27.294 76.2081 27.84 76.2081 28.464V28.572C76.2081 29.628 76.4541 30.426 76.9461 30.966C77.4501 31.494 78.1761 31.758 79.1241 31.758C79.4841 31.758 79.8621 31.71 80.2581 31.614C80.6661 31.518 81.0501 31.356 81.4101 31.128C81.6141 31.008 81.7941 30.954 81.9501 30.966C82.1181 30.978 82.2501 31.032 82.3461 31.128C82.4541 31.224 82.5201 31.344 82.5441 31.488C82.5681 31.632 82.5441 31.782 82.4721 31.938C82.4001 32.082 82.2741 32.214 82.0941 32.334C81.6861 32.61 81.2121 32.82 80.6721 32.964C80.1321 33.096 79.6101 33.162 79.1061 33.162ZM85.4081 33.126C85.1201 33.126 84.8981 33.048 84.7421 32.892C84.5861 32.724 84.5081 32.496 84.5081 32.208V25.008C84.5081 24.708 84.5861 24.48 84.7421 24.324C84.8981 24.168 85.1141 24.09 85.3901 24.09C85.6781 24.09 85.8941 24.168 86.0381 24.324C86.1941 24.48 86.2721 24.708 86.2721 25.008V26.484L86.0741 26.088C86.3141 25.452 86.6861 24.954 87.1901 24.594C87.6941 24.234 88.3001 24.054 89.0081 24.054C89.7401 24.054 90.3341 24.228 90.7901 24.576C91.2461 24.924 91.5581 25.458 91.7261 26.178H91.4741C91.7021 25.518 92.0921 25.002 92.6441 24.63C93.1961 24.246 93.8381 24.054 94.5701 24.054C95.2421 24.054 95.7941 24.186 96.2261 24.45C96.6581 24.702 96.9821 25.092 97.1981 25.62C97.4141 26.136 97.5221 26.79 97.5221 27.582V32.208C97.5221 32.496 97.4381 32.724 97.2701 32.892C97.1141 33.048 96.8921 33.126 96.6041 33.126C96.3161 33.126 96.0941 33.048 95.9381 32.892C95.7821 32.724 95.7041 32.496 95.7041 32.208V27.672C95.7041 26.928 95.5721 26.382 95.3081 26.034C95.0561 25.686 94.6361 25.512 94.0481 25.512C93.3881 25.512 92.8661 25.74 92.4821 26.196C92.0981 26.652 91.9061 27.282 91.9061 28.086V32.208C91.9061 32.496 91.8281 32.724 91.6721 32.892C91.5161 33.048 91.2941 33.126 91.0061 33.126C90.7181 33.126 90.4901 33.048 90.3221 32.892C90.1661 32.724 90.0881 32.496 90.0881 32.208V27.672C90.0881 26.928 89.9621 26.382 89.7101 26.034C89.4581 25.686 89.0381 25.512 88.4501 25.512C87.7901 25.512 87.2681 25.74 86.8841 26.196C86.5121 26.652 86.3261 27.282 86.3261 28.086V32.208C86.3261 32.82 86.0201 33.126 85.4081 33.126ZM102.692 33.162C102.08 33.162 101.528 33.042 101.036 32.802C100.556 32.562 100.178 32.238 99.9019 31.83C99.6259 31.422 99.4879 30.96 99.4879 30.444C99.4879 29.796 99.6499 29.286 99.9739 28.914C100.31 28.53 100.856 28.26 101.612 28.104C102.38 27.936 103.412 27.852 104.708 27.852H105.554V28.968H104.726C103.862 28.968 103.178 29.01 102.674 29.094C102.17 29.178 101.81 29.322 101.594 29.526C101.39 29.718 101.288 29.988 101.288 30.336C101.288 30.792 101.444 31.164 101.756 31.452C102.068 31.728 102.5 31.866 103.052 31.866C103.496 31.866 103.886 31.764 104.222 31.56C104.558 31.344 104.822 31.056 105.014 30.696C105.218 30.336 105.32 29.922 105.32 29.454V27.384C105.32 26.7 105.176 26.208 104.888 25.908C104.6 25.608 104.126 25.458 103.466 25.458C103.082 25.458 102.68 25.506 102.26 25.602C101.852 25.698 101.426 25.86 100.982 26.088C100.778 26.184 100.604 26.214 100.46 26.178C100.316 26.142 100.202 26.064 100.118 25.944C100.034 25.812 99.9859 25.674 99.9739 25.53C99.9739 25.374 100.01 25.224 100.082 25.08C100.166 24.936 100.304 24.828 100.496 24.756C101.024 24.504 101.546 24.324 102.062 24.216C102.578 24.108 103.064 24.054 103.52 24.054C104.324 24.054 104.984 24.18 105.5 24.432C106.028 24.684 106.418 25.068 106.67 25.584C106.922 26.1 107.048 26.766 107.048 27.582V32.208C107.048 32.496 106.976 32.724 106.832 32.892C106.688 33.048 106.478 33.126 106.202 33.126C105.938 33.126 105.728 33.048 105.572 32.892C105.416 32.724 105.338 32.496 105.338 32.208V31.038H105.5C105.404 31.482 105.224 31.866 104.96 32.19C104.708 32.502 104.39 32.742 104.006 32.91C103.622 33.078 103.184 33.162 102.692 33.162ZM104.258 22.956C104.162 23.1 104.042 23.184 103.898 23.208C103.766 23.232 103.634 23.208 103.502 23.136C103.37 23.064 103.274 22.962 103.214 22.83C103.166 22.698 103.178 22.554 103.25 22.398L104.708 19.572C104.804 19.38 104.924 19.254 105.068 19.194C105.224 19.134 105.38 19.128 105.536 19.176C105.704 19.212 105.842 19.284 105.95 19.392C106.07 19.5 106.142 19.638 106.166 19.806C106.19 19.962 106.148 20.118 106.04 20.274L104.258 22.956ZM113.116 33.162C112.396 33.162 111.79 33.036 111.298 32.784C110.806 32.532 110.44 32.16 110.2 31.668C109.96 31.176 109.84 30.576 109.84 29.868V25.62H108.76C108.52 25.62 108.334 25.56 108.202 25.44C108.07 25.308 108.004 25.134 108.004 24.918C108.004 24.69 108.07 24.516 108.202 24.396C108.334 24.276 108.52 24.216 108.76 24.216H109.84V22.362C109.84 22.062 109.918 21.834 110.074 21.678C110.242 21.522 110.47 21.444 110.758 21.444C111.046 21.444 111.268 21.522 111.424 21.678C111.58 21.834 111.658 22.062 111.658 22.362V24.216H113.764C114.004 24.216 114.19 24.276 114.322 24.396C114.454 24.516 114.52 24.69 114.52 24.918C114.52 25.134 114.454 25.308 114.322 25.44C114.19 25.56 114.004 25.62 113.764 25.62H111.658V29.724C111.658 30.36 111.79 30.84 112.054 31.164C112.33 31.488 112.774 31.65 113.386 31.65C113.602 31.65 113.788 31.632 113.944 31.596C114.112 31.548 114.25 31.518 114.358 31.506C114.49 31.506 114.598 31.554 114.682 31.65C114.766 31.734 114.808 31.902 114.808 32.154C114.808 32.334 114.772 32.502 114.7 32.658C114.64 32.814 114.526 32.916 114.358 32.964C114.214 33.012 114.016 33.054 113.764 33.09C113.524 33.138 113.308 33.162 113.116 33.162ZM116.824 33.108C116.536 33.108 116.314 33.024 116.158 32.856C116.002 32.676 115.924 32.43 115.924 32.118V25.098C115.924 24.786 116.002 24.546 116.158 24.378C116.314 24.21 116.536 24.126 116.824 24.126C117.112 24.126 117.334 24.21 117.49 24.378C117.658 24.546 117.742 24.786 117.742 25.098V32.118C117.742 32.43 117.664 32.676 117.508 32.856C117.352 33.024 117.124 33.108 116.824 33.108ZM116.824 22.254C116.464 22.254 116.182 22.164 115.978 21.984C115.786 21.804 115.69 21.552 115.69 21.228C115.69 20.892 115.786 20.64 115.978 20.472C116.182 20.292 116.464 20.202 116.824 20.202C117.184 20.202 117.46 20.292 117.652 20.472C117.856 20.64 117.958 20.892 117.958 21.228C117.958 21.552 117.856 21.804 117.652 21.984C117.46 22.164 117.184 22.254 116.824 22.254ZM123.991 33.162C123.091 33.162 122.311 32.976 121.651 32.604C121.003 32.22 120.499 31.686 120.139 31.002C119.779 30.306 119.599 29.49 119.599 28.554C119.599 27.858 119.701 27.234 119.905 26.682C120.109 26.118 120.397 25.644 120.769 25.26C121.153 24.876 121.615 24.582 122.155 24.378C122.707 24.162 123.319 24.054 123.991 24.054C124.411 24.054 124.849 24.12 125.305 24.252C125.773 24.372 126.205 24.576 126.601 24.864C126.757 24.96 126.853 25.08 126.889 25.224C126.937 25.356 126.943 25.494 126.907 25.638C126.883 25.782 126.817 25.908 126.709 26.016C126.613 26.112 126.493 26.172 126.349 26.196C126.205 26.208 126.049 26.166 125.881 26.07C125.593 25.866 125.299 25.722 124.999 25.638C124.699 25.542 124.411 25.494 124.135 25.494C123.703 25.494 123.319 25.566 122.983 25.71C122.659 25.842 122.383 26.04 122.155 26.304C121.927 26.556 121.753 26.874 121.633 27.258C121.525 27.642 121.471 28.08 121.471 28.572C121.471 29.556 121.699 30.33 122.155 30.894C122.623 31.446 123.283 31.722 124.135 31.722C124.411 31.722 124.699 31.68 124.999 31.596C125.299 31.512 125.593 31.368 125.881 31.164C126.049 31.068 126.205 31.032 126.349 31.056C126.493 31.08 126.607 31.146 126.691 31.254C126.787 31.35 126.847 31.47 126.871 31.614C126.907 31.746 126.901 31.884 126.853 32.028C126.805 32.172 126.703 32.292 126.547 32.388C126.163 32.664 125.743 32.862 125.287 32.982C124.843 33.102 124.411 33.162 123.991 33.162ZM131.081 33.162C130.469 33.162 129.917 33.042 129.425 32.802C128.945 32.562 128.567 32.238 128.291 31.83C128.015 31.422 127.877 30.96 127.877 30.444C127.877 29.796 128.039 29.286 128.363 28.914C128.699 28.53 129.245 28.26 130.001 28.104C130.769 27.936 131.801 27.852 133.097 27.852H133.943V28.968H133.115C132.251 28.968 131.567 29.01 131.063 29.094C130.559 29.178 130.199 29.322 129.983 29.526C129.779 29.718 129.677 29.988 129.677 30.336C129.677 30.792 129.833 31.164 130.145 31.452C130.457 31.728 130.889 31.866 131.441 31.866C131.885 31.866 132.275 31.764 132.611 31.56C132.947 31.344 133.211 31.056 133.403 30.696C133.607 30.336 133.709 29.922 133.709 29.454V27.384C133.709 26.7 133.565 26.208 133.277 25.908C132.989 25.608 132.515 25.458 131.855 25.458C131.471 25.458 131.069 25.506 130.649 25.602C130.241 25.698 129.815 25.86 129.371 26.088C129.167 26.184 128.993 26.214 128.849 26.178C128.705 26.142 128.591 26.064 128.507 25.944C128.423 25.812 128.375 25.674 128.363 25.53C128.363 25.374 128.399 25.224 128.471 25.08C128.555 24.936 128.693 24.828 128.885 24.756C129.413 24.504 129.935 24.324 130.451 24.216C130.967 24.108 131.453 24.054 131.909 24.054C132.713 24.054 133.373 24.18 133.889 24.432C134.417 24.684 134.807 25.068 135.059 25.584C135.311 26.1 135.437 26.766 135.437 27.582V32.208C135.437 32.496 135.365 32.724 135.221 32.892C135.077 33.048 134.867 33.126 134.591 33.126C134.327 33.126 134.117 33.048 133.961 32.892C133.805 32.724 133.727 32.496 133.727 32.208V31.038H133.889C133.793 31.482 133.613 31.866 133.349 32.19C133.097 32.502 132.779 32.742 132.395 32.91C132.011 33.078 131.573 33.162 131.081 33.162Z" fill="#061D44"/>
<defs>
<clipPath id="clip0_28_21">
<rect width="40" height="40" fill="white"/>
</clipPath>
</defs>
</svg>
