<svg width="297" height="48" viewBox="0 0 297 48" fill="none" xmlns="http://www.w3.org/2000/svg">
<g clip-path="url(#clip0_5_313)">
<path d="M23.9334 0.00232926C23.778 0.0132509 23.6277 0.0623242 23.4958 0.145197C23.3639 0.228069 23.2545 0.342205 23.1772 0.477465L2.88753 35.9843C2.7817 36.1695 2.71475 36.3744 2.69078 36.5863C2.66681 36.7983 2.68633 37.0129 2.74814 37.217C2.80995 37.4212 2.91275 37.6106 3.05026 37.7737C3.18777 37.9367 3.3571 38.0701 3.54789 38.1655L22.5168 47.6499C22.9773 47.8802 23.485 48 23.9998 48C24.5146 48 25.0224 47.8802 25.4828 47.6499L44.4518 38.1655C44.6426 38.0701 44.8119 37.9367 44.9494 37.7737C45.0869 37.6106 45.1897 37.4212 45.2515 37.217C45.3133 37.0129 45.3328 36.7983 45.3089 36.5863C45.2849 36.3744 45.218 36.1695 45.1121 35.9843L24.8225 0.477465C24.734 0.322632 24.6036 0.195887 24.4464 0.11184C24.2891 0.0277923 24.1113 -0.010166 23.9334 0.00232926ZM23.9998 3.42478L42.6445 36.3272L23.9998 45.1012V3.42478Z" fill="url(#paint0_linear_5_313)"/>
</g>
<path d="M64.146 35.288C62.7807 35.288 61.5967 34.9467 60.594 34.264C59.5913 33.56 58.9193 32.632 58.578 31.48L58.93 30.904V33.592C58.93 34.104 58.7913 34.5093 58.514 34.808C58.2367 35.0853 57.8527 35.224 57.362 35.224C56.85 35.224 56.4553 35.0853 56.178 34.808C55.9007 34.5093 55.762 34.104 55.762 33.592V13.848C55.762 13.3147 55.9007 12.9093 56.178 12.632C56.4553 12.3547 56.85 12.216 57.362 12.216C57.874 12.216 58.2687 12.3547 58.546 12.632C58.8447 12.9093 58.994 13.3147 58.994 13.848V22.808H58.61C58.9513 21.6773 59.6233 20.7813 60.626 20.12C61.6287 19.4373 62.802 19.096 64.146 19.096C65.554 19.096 66.77 19.4267 67.794 20.088C68.818 20.7493 69.6073 21.6773 70.162 22.872C70.738 24.0667 71.026 25.5067 71.026 27.192C71.026 28.8347 70.738 30.2747 70.162 31.512C69.6073 32.728 68.8073 33.6667 67.762 34.328C66.738 34.968 65.5327 35.288 64.146 35.288ZM63.346 32.792C64.242 32.792 65.0207 32.5787 65.682 32.152C66.3433 31.7253 66.8553 31.096 67.218 30.264C67.5807 29.432 67.762 28.408 67.762 27.192C67.762 25.3573 67.3567 23.9707 66.546 23.032C65.7567 22.0933 64.69 21.624 63.346 21.624C62.4713 21.624 61.6927 21.8373 61.01 22.264C60.3487 22.6693 59.8367 23.288 59.474 24.12C59.1113 24.952 58.93 25.976 58.93 27.192C58.93 29.0053 59.3353 30.392 60.146 31.352C60.9567 32.312 62.0233 32.792 63.346 32.792ZM79.3402 35.288C78.2522 35.288 77.2709 35.0747 76.3962 34.648C75.5429 34.2213 74.8709 33.6453 74.3802 32.92C73.8896 32.1947 73.6442 31.3733 73.6442 30.456C73.6442 29.304 73.9322 28.3973 74.5082 27.736C75.1056 27.0533 76.0762 26.5733 77.4202 26.296C78.7856 25.9973 80.6202 25.848 82.9242 25.848H84.4282V27.832H82.9562C81.4202 27.832 80.2042 27.9067 79.3082 28.056C78.4122 28.2053 77.7722 28.4613 77.3882 28.824C77.0256 29.1653 76.8442 29.6453 76.8442 30.264C76.8442 31.0747 77.1216 31.736 77.6762 32.248C78.2309 32.7387 78.9989 32.984 79.9802 32.984C80.7696 32.984 81.4629 32.8027 82.0602 32.44C82.6576 32.056 83.1269 31.544 83.4682 30.904C83.8309 30.264 84.0122 29.528 84.0122 28.696V25.016C84.0122 23.8 83.7562 22.9253 83.2442 22.392C82.7322 21.8587 81.8896 21.592 80.7162 21.592C80.0336 21.592 79.3189 21.6773 78.5722 21.848C77.8469 22.0187 77.0896 22.3067 76.3002 22.712C75.9376 22.8827 75.6282 22.936 75.3722 22.872C75.1162 22.808 74.9136 22.6693 74.7642 22.456C74.6149 22.2213 74.5296 21.976 74.5082 21.72C74.5082 21.4427 74.5722 21.176 74.7002 20.92C74.8496 20.664 75.0949 20.472 75.4362 20.344C76.3749 19.896 77.3029 19.576 78.2202 19.384C79.1376 19.192 80.0016 19.096 80.8122 19.096C82.2416 19.096 83.4149 19.32 84.3322 19.768C85.2709 20.216 85.9642 20.8987 86.4122 21.816C86.8602 22.7333 87.0842 23.9173 87.0842 25.368V33.592C87.0842 34.104 86.9562 34.5093 86.7002 34.808C86.4442 35.0853 86.0709 35.224 85.5802 35.224C85.1109 35.224 84.7376 35.0853 84.4602 34.808C84.1829 34.5093 84.0442 34.104 84.0442 33.592V31.512H84.3322C84.1616 32.3013 83.8416 32.984 83.3722 33.56C82.9242 34.1147 82.3589 34.5413 81.6762 34.84C80.9936 35.1387 80.2149 35.288 79.3402 35.288ZM96.6877 35.288C95.7491 35.288 94.7784 35.1813 93.7757 34.968C92.7944 34.7547 91.8877 34.392 91.0557 33.88C90.7784 33.688 90.5864 33.4747 90.4797 33.24C90.3731 33.0053 90.3304 32.7707 90.3517 32.536C90.3944 32.28 90.4904 32.0667 90.6397 31.896C90.8104 31.704 91.0131 31.5867 91.2477 31.544C91.5037 31.5013 91.7704 31.5547 92.0477 31.704C92.8797 32.1733 93.6797 32.504 94.4477 32.696C95.2157 32.8667 95.9731 32.952 96.7197 32.952C97.8504 32.952 98.7037 32.7493 99.2797 32.344C99.8557 31.9387 100.144 31.3947 100.144 30.712C100.144 30.1573 99.9517 29.7307 99.5677 29.432C99.1837 29.112 98.6077 28.8667 97.8397 28.696L94.7997 28.088C93.4771 27.8107 92.4744 27.32 91.7917 26.616C91.1091 25.912 90.7677 25.016 90.7677 23.928C90.7677 22.9467 91.0344 22.0933 91.5677 21.368C92.1011 20.6427 92.8477 20.088 93.8077 19.704C94.7677 19.2987 95.8771 19.096 97.1357 19.096C98.0744 19.096 98.9597 19.2133 99.7917 19.448C100.624 19.6827 101.392 20.0347 102.096 20.504C102.373 20.6533 102.554 20.856 102.64 21.112C102.725 21.3467 102.736 21.5813 102.672 21.816C102.629 22.0507 102.522 22.264 102.352 22.456C102.181 22.6267 101.968 22.7333 101.712 22.776C101.477 22.7973 101.21 22.7333 100.912 22.584C100.272 22.1787 99.6317 21.8907 98.9917 21.72C98.3731 21.5493 97.7544 21.464 97.1357 21.464C96.0051 21.464 95.1517 21.6773 94.5757 22.104C94.0211 22.5093 93.7437 23.064 93.7437 23.768C93.7437 24.3013 93.9144 24.7387 94.2557 25.08C94.5971 25.4213 95.1304 25.6667 95.8557 25.816L98.8957 26.424C100.282 26.7013 101.328 27.1707 102.032 27.832C102.757 28.4933 103.12 29.3893 103.12 30.52C103.12 31.992 102.533 33.1547 101.36 34.008C100.186 34.8613 98.6291 35.288 96.6877 35.288ZM113.724 35.288C112.017 35.288 110.545 34.968 109.308 34.328C108.092 33.6667 107.142 32.7387 106.46 31.544C105.798 30.328 105.468 28.888 105.468 27.224C105.468 25.6027 105.798 24.184 106.46 22.968C107.121 21.752 108.028 20.8027 109.18 20.12C110.332 19.4373 111.644 19.096 113.116 19.096C114.204 19.096 115.174 19.2773 116.028 19.64C116.881 19.9813 117.606 20.4933 118.204 21.176C118.822 21.8373 119.281 22.648 119.58 23.608C119.9 24.568 120.06 25.6453 120.06 26.84C120.06 27.2027 119.953 27.48 119.74 27.672C119.526 27.8427 119.206 27.928 118.78 27.928H108.028V25.944H117.884L117.34 26.392C117.34 25.3253 117.18 24.4187 116.86 23.672C116.561 22.9253 116.102 22.36 115.484 21.976C114.886 21.5707 114.14 21.368 113.244 21.368C112.241 21.368 111.388 21.6027 110.684 22.072C110.001 22.5413 109.478 23.192 109.116 24.024C108.753 24.856 108.572 25.8267 108.572 26.936V27.128C108.572 29.0053 109.009 30.424 109.884 31.384C110.78 32.3227 112.07 32.792 113.756 32.792C114.396 32.792 115.068 32.7067 115.772 32.536C116.497 32.3653 117.18 32.0773 117.82 31.672C118.182 31.4587 118.502 31.3627 118.78 31.384C119.078 31.4053 119.313 31.5013 119.484 31.672C119.676 31.8427 119.793 32.056 119.836 32.312C119.878 32.568 119.836 32.8347 119.708 33.112C119.58 33.368 119.356 33.6027 119.036 33.816C118.31 34.3067 117.468 34.68 116.508 34.936C115.548 35.1707 114.62 35.288 113.724 35.288ZM133.045 35.224C132.533 35.224 132.138 35.0853 131.861 34.808C131.583 34.5093 131.445 34.104 131.445 33.592V20.792C131.445 20.2587 131.583 19.8533 131.861 19.576C132.138 19.2987 132.522 19.16 133.013 19.16C133.525 19.16 133.909 19.2987 134.165 19.576C134.442 19.8533 134.581 20.2587 134.581 20.792V23.416L134.229 22.712C134.655 21.5813 135.317 20.696 136.213 20.056C137.109 19.416 138.186 19.096 139.445 19.096C140.746 19.096 141.802 19.4053 142.613 20.024C143.423 20.6427 143.978 21.592 144.277 22.872H143.829C144.234 21.6987 144.927 20.7813 145.909 20.12C146.89 19.4373 148.031 19.096 149.333 19.096C150.527 19.096 151.509 19.3307 152.277 19.8C153.045 20.248 153.621 20.9413 154.005 21.88C154.389 22.7973 154.581 23.96 154.581 25.368V33.592C154.581 34.104 154.431 34.5093 154.133 34.808C153.855 35.0853 153.461 35.224 152.949 35.224C152.437 35.224 152.042 35.0853 151.765 34.808C151.487 34.5093 151.349 34.104 151.349 33.592V25.528C151.349 24.2053 151.114 23.2347 150.645 22.616C150.197 21.9973 149.45 21.688 148.405 21.688C147.231 21.688 146.303 22.0933 145.621 22.904C144.938 23.7147 144.597 24.8347 144.597 26.264V33.592C144.597 34.104 144.458 34.5093 144.181 34.808C143.903 35.0853 143.509 35.224 142.997 35.224C142.485 35.224 142.079 35.0853 141.781 34.808C141.503 34.5093 141.365 34.104 141.365 33.592V25.528C141.365 24.2053 141.141 23.2347 140.693 22.616C140.245 21.9973 139.498 21.688 138.453 21.688C137.279 21.688 136.351 22.0933 135.669 22.904C135.007 23.7147 134.677 24.8347 134.677 26.264V33.592C134.677 34.68 134.133 35.224 133.045 35.224ZM163.772 35.288C162.684 35.288 161.702 35.0747 160.827 34.648C159.974 34.2213 159.302 33.6453 158.811 32.92C158.321 32.1947 158.075 31.3733 158.075 30.456C158.075 29.304 158.363 28.3973 158.939 27.736C159.537 27.0533 160.507 26.5733 161.852 26.296C163.217 25.9973 165.052 25.848 167.356 25.848H168.859V27.832H167.387C165.851 27.832 164.635 27.9067 163.74 28.056C162.844 28.2053 162.204 28.4613 161.819 28.824C161.457 29.1653 161.275 29.6453 161.275 30.264C161.275 31.0747 161.553 31.736 162.108 32.248C162.662 32.7387 163.43 32.984 164.411 32.984C165.201 32.984 165.894 32.8027 166.491 32.44C167.089 32.056 167.558 31.544 167.899 30.904C168.262 30.264 168.444 29.528 168.444 28.696V25.016C168.444 23.8 168.188 22.9253 167.675 22.392C167.164 21.8587 166.321 21.592 165.148 21.592C164.465 21.592 163.75 21.6773 163.003 21.848C162.278 22.0187 161.521 22.3067 160.731 22.712C160.369 22.8827 160.059 22.936 159.803 22.872C159.547 22.808 159.345 22.6693 159.195 22.456C159.046 22.2213 158.961 21.976 158.939 21.72C158.939 21.4427 159.003 21.176 159.131 20.92C159.281 20.664 159.526 20.472 159.867 20.344C160.806 19.896 161.734 19.576 162.651 19.384C163.569 19.192 164.433 19.096 165.243 19.096C166.673 19.096 167.846 19.32 168.764 19.768C169.702 20.216 170.396 20.8987 170.844 21.816C171.292 22.7333 171.516 23.9173 171.516 25.368V33.592C171.516 34.104 171.388 34.5093 171.132 34.808C170.876 35.0853 170.502 35.224 170.012 35.224C169.542 35.224 169.169 35.0853 168.892 34.808C168.614 34.5093 168.476 34.104 168.476 33.592V31.512H168.764C168.593 32.3013 168.273 32.984 167.804 33.56C167.356 34.1147 166.79 34.5413 166.108 34.84C165.425 35.1387 164.646 35.288 163.772 35.288ZM182.303 35.288C181.023 35.288 179.946 35.064 179.071 34.616C178.196 34.168 177.546 33.5067 177.119 32.632C176.692 31.7573 176.479 30.6907 176.479 29.432V21.88H174.559C174.132 21.88 173.802 21.7733 173.567 21.56C173.332 21.3253 173.215 21.016 173.215 20.632C173.215 20.2267 173.332 19.9173 173.567 19.704C173.802 19.4907 174.132 19.384 174.559 19.384H176.479V16.088C176.479 15.5547 176.618 15.1493 176.895 14.872C177.194 14.5947 177.599 14.456 178.111 14.456C178.623 14.456 179.018 14.5947 179.295 14.872C179.572 15.1493 179.711 15.5547 179.711 16.088V19.384H183.455C183.882 19.384 184.212 19.4907 184.447 19.704C184.682 19.9173 184.799 20.2267 184.799 20.632C184.799 21.016 184.682 21.3253 184.447 21.56C184.212 21.7733 183.882 21.88 183.455 21.88H179.711V29.176C179.711 30.3067 179.946 31.16 180.415 31.736C180.906 32.312 181.695 32.6 182.783 32.6C183.167 32.6 183.498 32.568 183.775 32.504C184.074 32.4187 184.319 32.3653 184.511 32.344C184.746 32.344 184.938 32.4293 185.087 32.6C185.236 32.7493 185.311 33.048 185.311 33.496C185.311 33.816 185.247 34.1147 185.119 34.392C185.012 34.6693 184.81 34.8507 184.511 34.936C184.255 35.0213 183.903 35.096 183.455 35.16C183.028 35.2453 182.644 35.288 182.303 35.288ZM194.186 35.288C192.48 35.288 191.008 34.968 189.77 34.328C188.554 33.6667 187.605 32.7387 186.922 31.544C186.261 30.328 185.93 28.888 185.93 27.224C185.93 25.6027 186.261 24.184 186.922 22.968C187.584 21.752 188.49 20.8027 189.642 20.12C190.794 19.4373 192.106 19.096 193.578 19.096C194.666 19.096 195.637 19.2773 196.49 19.64C197.344 19.9813 198.069 20.4933 198.666 21.176C199.285 21.8373 199.744 22.648 200.042 23.608C200.362 24.568 200.522 25.6453 200.522 26.84C200.522 27.2027 200.416 27.48 200.202 27.672C199.989 27.8427 199.669 27.928 199.242 27.928H188.49V25.944H198.346L197.802 26.392C197.802 25.3253 197.642 24.4187 197.322 23.672C197.024 22.9253 196.565 22.36 195.946 21.976C195.349 21.5707 194.602 21.368 193.706 21.368C192.704 21.368 191.85 21.6027 191.146 22.072C190.464 22.5413 189.941 23.192 189.578 24.024C189.216 24.856 189.034 25.8267 189.034 26.936V27.128C189.034 29.0053 189.472 30.424 190.346 31.384C191.242 32.3227 192.533 32.792 194.218 32.792C194.858 32.792 195.53 32.7067 196.234 32.536C196.96 32.3653 197.642 32.0773 198.282 31.672C198.645 31.4587 198.965 31.3627 199.242 31.384C199.541 31.4053 199.776 31.5013 199.946 31.672C200.138 31.8427 200.256 32.056 200.298 32.312C200.341 32.568 200.298 32.8347 200.17 33.112C200.042 33.368 199.818 33.6027 199.498 33.816C198.773 34.3067 197.93 34.68 196.97 34.936C196.01 35.1707 195.082 35.288 194.186 35.288ZM205.39 35.224C204.878 35.224 204.483 35.0853 204.206 34.808C203.928 34.5093 203.79 34.104 203.79 33.592V20.792C203.79 20.2587 203.928 19.8533 204.206 19.576C204.483 19.2987 204.867 19.16 205.358 19.16C205.87 19.16 206.254 19.2987 206.51 19.576C206.787 19.8533 206.926 20.2587 206.926 20.792V23.416L206.574 22.712C207 21.5813 207.662 20.696 208.558 20.056C209.454 19.416 210.531 19.096 211.79 19.096C213.091 19.096 214.147 19.4053 214.958 20.024C215.768 20.6427 216.323 21.592 216.622 22.872H216.174C216.579 21.6987 217.272 20.7813 218.254 20.12C219.235 19.4373 220.376 19.096 221.678 19.096C222.872 19.096 223.854 19.3307 224.622 19.8C225.39 20.248 225.966 20.9413 226.35 21.88C226.734 22.7973 226.926 23.96 226.926 25.368V33.592C226.926 34.104 226.776 34.5093 226.478 34.808C226.2 35.0853 225.806 35.224 225.294 35.224C224.782 35.224 224.387 35.0853 224.11 34.808C223.832 34.5093 223.694 34.104 223.694 33.592V25.528C223.694 24.2053 223.459 23.2347 222.99 22.616C222.542 21.9973 221.795 21.688 220.75 21.688C219.576 21.688 218.648 22.0933 217.966 22.904C217.283 23.7147 216.942 24.8347 216.942 26.264V33.592C216.942 34.104 216.803 34.5093 216.526 34.808C216.248 35.0853 215.854 35.224 215.342 35.224C214.83 35.224 214.424 35.0853 214.126 34.808C213.848 34.5093 213.71 34.104 213.71 33.592V25.528C213.71 24.2053 213.486 23.2347 213.038 22.616C212.59 21.9973 211.843 21.688 210.798 21.688C209.624 21.688 208.696 22.0933 208.014 22.904C207.352 23.7147 207.022 24.8347 207.022 26.264V33.592C207.022 34.68 206.478 35.224 205.39 35.224ZM236.117 35.288C235.029 35.288 234.047 35.0747 233.173 34.648C232.319 34.2213 231.647 33.6453 231.157 32.92C230.666 32.1947 230.421 31.3733 230.421 30.456C230.421 29.304 230.709 28.3973 231.285 27.736C231.882 27.0533 232.853 26.5733 234.197 26.296C235.562 25.9973 237.397 25.848 239.701 25.848H241.205V27.832H239.733C238.197 27.832 236.981 27.9067 236.085 28.056C235.189 28.2053 234.549 28.4613 234.165 28.824C233.802 29.1653 233.621 29.6453 233.621 30.264C233.621 31.0747 233.898 31.736 234.453 32.248C235.007 32.7387 235.775 32.984 236.757 32.984C237.546 32.984 238.239 32.8027 238.837 32.44C239.434 32.056 239.903 31.544 240.245 30.904C240.607 30.264 240.789 29.528 240.789 28.696V25.016C240.789 23.8 240.533 22.9253 240.021 22.392C239.509 21.8587 238.666 21.592 237.493 21.592C236.81 21.592 236.095 21.6773 235.349 21.848C234.623 22.0187 233.866 22.3067 233.077 22.712C232.714 22.8827 232.405 22.936 232.149 22.872C231.893 22.808 231.69 22.6693 231.541 22.456C231.391 22.2213 231.306 21.976 231.285 21.72C231.285 21.4427 231.349 21.176 231.477 20.92C231.626 20.664 231.871 20.472 232.213 20.344C233.151 19.896 234.079 19.576 234.997 19.384C235.914 19.192 236.778 19.096 237.589 19.096C239.018 19.096 240.191 19.32 241.109 19.768C242.047 20.216 242.741 20.8987 243.189 21.816C243.637 22.7333 243.861 23.9173 243.861 25.368V33.592C243.861 34.104 243.733 34.5093 243.477 34.808C243.221 35.0853 242.847 35.224 242.357 35.224C241.887 35.224 241.514 35.0853 241.237 34.808C240.959 34.5093 240.821 34.104 240.821 33.592V31.512H241.109C240.938 32.3013 240.618 32.984 240.149 33.56C239.701 34.1147 239.135 34.5413 238.453 34.84C237.77 35.1387 236.991 35.288 236.117 35.288ZM238.901 17.144C238.73 17.4 238.517 17.5493 238.261 17.592C238.026 17.6347 237.791 17.592 237.557 17.464C237.322 17.336 237.151 17.1547 237.045 16.92C236.959 16.6853 236.981 16.4293 237.109 16.152L239.701 11.128C239.871 10.7867 240.085 10.5627 240.341 10.456C240.618 10.3493 240.895 10.3387 241.173 10.424C241.471 10.488 241.717 10.616 241.909 10.808C242.122 11 242.25 11.2453 242.293 11.544C242.335 11.8213 242.261 12.0987 242.069 12.376L238.901 17.144ZM254.648 35.288C253.368 35.288 252.291 35.064 251.416 34.616C250.541 34.168 249.891 33.5067 249.464 32.632C249.037 31.7573 248.824 30.6907 248.824 29.432V21.88H246.904C246.477 21.88 246.147 21.7733 245.912 21.56C245.677 21.3253 245.56 21.016 245.56 20.632C245.56 20.2267 245.677 19.9173 245.912 19.704C246.147 19.4907 246.477 19.384 246.904 19.384H248.824V16.088C248.824 15.5547 248.963 15.1493 249.24 14.872C249.539 14.5947 249.944 14.456 250.456 14.456C250.968 14.456 251.363 14.5947 251.64 14.872C251.917 15.1493 252.056 15.5547 252.056 16.088V19.384H255.8C256.227 19.384 256.557 19.4907 256.792 19.704C257.027 19.9173 257.144 20.2267 257.144 20.632C257.144 21.016 257.027 21.3253 256.792 21.56C256.557 21.7733 256.227 21.88 255.8 21.88H252.056V29.176C252.056 30.3067 252.291 31.16 252.76 31.736C253.251 32.312 254.04 32.6 255.128 32.6C255.512 32.6 255.843 32.568 256.12 32.504C256.419 32.4187 256.664 32.3653 256.856 32.344C257.091 32.344 257.283 32.4293 257.432 32.6C257.581 32.7493 257.656 33.048 257.656 33.496C257.656 33.816 257.592 34.1147 257.464 34.392C257.357 34.6693 257.155 34.8507 256.856 34.936C256.6 35.0213 256.248 35.096 255.8 35.16C255.373 35.2453 254.989 35.288 254.648 35.288ZM261.241 35.192C260.729 35.192 260.334 35.0427 260.057 34.744C259.779 34.424 259.641 33.9867 259.641 33.432V20.952C259.641 20.3973 259.779 19.9707 260.057 19.672C260.334 19.3733 260.729 19.224 261.241 19.224C261.753 19.224 262.147 19.3733 262.425 19.672C262.723 19.9707 262.873 20.3973 262.873 20.952V33.432C262.873 33.9867 262.734 34.424 262.457 34.744C262.179 35.0427 261.774 35.192 261.241 35.192ZM261.241 15.896C260.601 15.896 260.099 15.736 259.737 15.416C259.395 15.096 259.225 14.648 259.225 14.072C259.225 13.4747 259.395 13.0267 259.737 12.728C260.099 12.408 260.601 12.248 261.241 12.248C261.881 12.248 262.371 12.408 262.713 12.728C263.075 13.0267 263.257 13.4747 263.257 14.072C263.257 14.648 263.075 15.096 262.713 15.416C262.371 15.736 261.881 15.896 261.241 15.896ZM273.982 35.288C272.382 35.288 270.995 34.9573 269.822 34.296C268.67 33.6133 267.774 32.664 267.134 31.448C266.494 30.2107 266.174 28.76 266.174 27.096C266.174 25.8587 266.355 24.7493 266.718 23.768C267.081 22.7653 267.593 21.9227 268.254 21.24C268.937 20.5573 269.758 20.0347 270.718 19.672C271.699 19.288 272.787 19.096 273.982 19.096C274.729 19.096 275.507 19.2133 276.318 19.448C277.15 19.6613 277.918 20.024 278.622 20.536C278.899 20.7067 279.07 20.92 279.134 21.176C279.219 21.4107 279.23 21.656 279.166 21.912C279.123 22.168 279.006 22.392 278.814 22.584C278.643 22.7547 278.43 22.8613 278.174 22.904C277.918 22.9253 277.641 22.8507 277.342 22.68C276.83 22.3173 276.307 22.0613 275.774 21.912C275.241 21.7413 274.729 21.656 274.238 21.656C273.47 21.656 272.787 21.784 272.19 22.04C271.614 22.2747 271.123 22.6267 270.718 23.096C270.313 23.544 270.003 24.1093 269.79 24.792C269.598 25.4747 269.502 26.2533 269.502 27.128C269.502 28.8773 269.907 30.2533 270.718 31.256C271.55 32.2373 272.723 32.728 274.238 32.728C274.729 32.728 275.241 32.6533 275.774 32.504C276.307 32.3547 276.83 32.0987 277.342 31.736C277.641 31.5653 277.918 31.5013 278.174 31.544C278.43 31.5867 278.633 31.704 278.782 31.896C278.953 32.0667 279.059 32.28 279.102 32.536C279.166 32.7707 279.155 33.016 279.07 33.272C278.985 33.528 278.803 33.7413 278.526 33.912C277.843 34.4027 277.097 34.7547 276.286 34.968C275.497 35.1813 274.729 35.288 273.982 35.288ZM286.587 35.288C285.499 35.288 284.517 35.0747 283.643 34.648C282.789 34.2213 282.117 33.6453 281.627 32.92C281.136 32.1947 280.891 31.3733 280.891 30.456C280.891 29.304 281.179 28.3973 281.755 27.736C282.352 27.0533 283.323 26.5733 284.667 26.296C286.032 25.9973 287.867 25.848 290.171 25.848H291.675V27.832H290.203C288.667 27.832 287.451 27.9067 286.555 28.056C285.659 28.2053 285.019 28.4613 284.635 28.824C284.272 29.1653 284.091 29.6453 284.091 30.264C284.091 31.0747 284.368 31.736 284.923 32.248C285.477 32.7387 286.245 32.984 287.227 32.984C288.016 32.984 288.709 32.8027 289.307 32.44C289.904 32.056 290.373 31.544 290.715 30.904C291.077 30.264 291.259 29.528 291.259 28.696V25.016C291.259 23.8 291.003 22.9253 290.491 22.392C289.979 21.8587 289.136 21.592 287.963 21.592C287.28 21.592 286.565 21.6773 285.819 21.848C285.093 22.0187 284.336 22.3067 283.547 22.712C283.184 22.8827 282.875 22.936 282.619 22.872C282.363 22.808 282.16 22.6693 282.011 22.456C281.861 22.2213 281.776 21.976 281.755 21.72C281.755 21.4427 281.819 21.176 281.947 20.92C282.096 20.664 282.341 20.472 282.683 20.344C283.621 19.896 284.549 19.576 285.467 19.384C286.384 19.192 287.248 19.096 288.059 19.096C289.488 19.096 290.661 19.32 291.579 19.768C292.517 20.216 293.211 20.8987 293.659 21.816C294.107 22.7333 294.331 23.9173 294.331 25.368V33.592C294.331 34.104 294.203 34.5093 293.947 34.808C293.691 35.0853 293.317 35.224 292.827 35.224C292.357 35.224 291.984 35.0853 291.707 34.808C291.429 34.5093 291.291 34.104 291.291 33.592V31.512H291.579C291.408 32.3013 291.088 32.984 290.619 33.56C290.171 34.1147 289.605 34.5413 288.923 34.84C288.24 35.1387 287.461 35.288 286.587 35.288Z" fill="url(#paint1_linear_5_313)"/>
<defs>
<linearGradient id="paint0_linear_5_313" x1="45.3188" y1="45.2868" x2="2.68085" y2="2.71322" gradientUnits="userSpaceOnUse">
<stop stop-color="#DE4EE1"/>
<stop offset="0.5" stop-color="#258BFC"/>
<stop offset="1" stop-color="#26E874"/>
</linearGradient>
<linearGradient id="paint1_linear_5_313" x1="53" y1="24" x2="297" y2="24" gradientUnits="userSpaceOnUse">
<stop stop-color="#26E874"/>
<stop offset="0.5" stop-color="#258BFC"/>
<stop offset="1" stop-color="#DE4EE1"/>
</linearGradient>
<clipPath id="clip0_5_313">
<rect width="48" height="48" fill="white"/>
</clipPath>
</defs>
</svg>
