<svg width="180" height="40" viewBox="0 0 180 40" fill="none" xmlns="http://www.w3.org/2000/svg">
<g clip-path="url(#clip0_28_21)">
<path d="M19.9445 0.00194105C19.815 0.0110424 19.6898 0.0519369 19.5798 0.120997C19.4699 0.190057 19.3787 0.285171 19.3143 0.397887L2.40627 29.9869C2.31807 30.1413 2.26228 30.312 2.24231 30.4886C2.22234 30.6652 2.2386 30.8441 2.29011 31.0142C2.34162 31.1843 2.42729 31.3422 2.54188 31.4781C2.65647 31.614 2.79758 31.7251 2.95657 31.8046L18.764 39.7083C19.1477 39.9001 19.5708 40 19.9998 40C20.4289 40 20.852 39.9001 21.2357 39.7083L37.0431 31.8046C37.2021 31.7251 37.3432 31.614 37.4578 31.4781C37.5724 31.3422 37.6581 31.1843 37.7096 31.0142C37.7611 30.8441 37.7773 30.6652 37.7574 30.4886C37.7374 30.312 37.6816 30.1413 37.5934 29.9869L20.6854 0.397887C20.6117 0.26886 20.503 0.163239 20.372 0.0931997C20.2409 0.0231603 20.0927 -0.00847164 19.9445 0.00194105ZM19.9998 2.85398L35.5371 30.2727L19.9998 37.5843V2.85398Z" fill="#061D44"/>
</g>
<path d="M48.494 26.162C47.726 26.162 47.06 25.97 46.496 25.586C45.932 25.19 45.554 24.668 45.362 24.02L45.56 23.696V25.208C45.56 25.496 45.482 25.724 45.326 25.892C45.17 26.048 44.954 26.126 44.678 26.126C44.39 26.126 44.168 26.048 44.012 25.892C43.856 25.724 43.778 25.496 43.778 25.208V14.102C43.778 13.802 43.856 13.574 44.012 13.418C44.168 13.262 44.39 13.184 44.678 13.184C44.966 13.184 45.188 13.262 45.344 13.418C45.512 13.574 45.596 13.802 45.596 14.102V19.142H45.38C45.572 18.506 45.95 18.002 46.514 17.63C47.078 17.246 47.738 17.054 48.494 17.054C49.286 17.054 49.97 17.24 50.546 17.612C51.122 17.984 51.566 18.506 51.878 19.178C52.202 19.85 52.364 20.66 52.364 21.608C52.364 22.532 52.202 23.342 51.878 24.038C51.566 24.722 51.116 25.25 50.528 25.622C49.952 25.982 49.274 26.162 48.494 26.162ZM48.044 24.758C48.548 24.758 48.986 24.638 49.358 24.398C49.73 24.158 50.018 23.804 50.222 23.336C50.426 22.868 50.528 22.292 50.528 21.608C50.528 20.576 50.3 19.796 49.844 19.268C49.4 18.74 48.8 18.476 48.044 18.476C47.552 18.476 47.114 18.596 46.73 18.836C46.358 19.064 46.07 19.412 45.866 19.88C45.662 20.348 45.56 20.924 45.56 21.608C45.56 22.628 45.788 23.408 46.244 23.948C46.7 24.488 47.3 24.758 48.044 24.758ZM57.0408 26.162C56.4288 26.162 55.8768 26.042 55.3848 25.802C54.9048 25.562 54.5268 25.238 54.2508 24.83C53.9748 24.422 53.8368 23.96 53.8368 23.444C53.8368 22.796 53.9988 22.286 54.3228 21.914C54.6588 21.53 55.2048 21.26 55.9608 21.104C56.7288 20.936 57.7608 20.852 59.0568 20.852H59.9028V21.968H59.0748C58.2108 21.968 57.5268 22.01 57.0228 22.094C56.5188 22.178 56.1588 22.322 55.9428 22.526C55.7388 22.718 55.6368 22.988 55.6368 23.336C55.6368 23.792 55.7928 24.164 56.1048 24.452C56.4168 24.728 56.8488 24.866 57.4008 24.866C57.8448 24.866 58.2348 24.764 58.5708 24.56C58.9068 24.344 59.1708 24.056 59.3628 23.696C59.5668 23.336 59.6688 22.922 59.6688 22.454V20.384C59.6688 19.7 59.5248 19.208 59.2368 18.908C58.9488 18.608 58.4748 18.458 57.8148 18.458C57.4308 18.458 57.0288 18.506 56.6088 18.602C56.2008 18.698 55.7748 18.86 55.3308 19.088C55.1268 19.184 54.9528 19.214 54.8088 19.178C54.6648 19.142 54.5508 19.064 54.4668 18.944C54.3828 18.812 54.3348 18.674 54.3228 18.53C54.3228 18.374 54.3588 18.224 54.4308 18.08C54.5148 17.936 54.6528 17.828 54.8448 17.756C55.3728 17.504 55.8948 17.324 56.4108 17.216C56.9268 17.108 57.4128 17.054 57.8688 17.054C58.6728 17.054 59.3328 17.18 59.8488 17.432C60.3768 17.684 60.7668 18.068 61.0188 18.584C61.2708 19.1 61.3968 19.766 61.3968 20.582V25.208C61.3968 25.496 61.3248 25.724 61.1808 25.892C61.0368 26.048 60.8268 26.126 60.5508 26.126C60.2868 26.126 60.0768 26.048 59.9208 25.892C59.7648 25.724 59.6868 25.496 59.6868 25.208V24.038H59.8488C59.7528 24.482 59.5728 24.866 59.3088 25.19C59.0568 25.502 58.7388 25.742 58.3548 25.91C57.9708 26.078 57.5328 26.162 57.0408 26.162ZM66.7987 26.162C66.2707 26.162 65.7247 26.102 65.1607 25.982C64.6087 25.862 64.0987 25.658 63.6307 25.37C63.4747 25.262 63.3667 25.142 63.3067 25.01C63.2467 24.878 63.2227 24.746 63.2347 24.614C63.2587 24.47 63.3127 24.35 63.3967 24.254C63.4927 24.146 63.6067 24.08 63.7387 24.056C63.8827 24.032 64.0327 24.062 64.1887 24.146C64.6567 24.41 65.1067 24.596 65.5387 24.704C65.9707 24.8 66.3967 24.848 66.8167 24.848C67.4527 24.848 67.9327 24.734 68.2567 24.506C68.5807 24.278 68.7427 23.972 68.7427 23.588C68.7427 23.276 68.6347 23.036 68.4187 22.868C68.2027 22.688 67.8787 22.55 67.4467 22.454L65.7367 22.112C64.9927 21.956 64.4287 21.68 64.0447 21.284C63.6607 20.888 63.4687 20.384 63.4687 19.772C63.4687 19.22 63.6187 18.74 63.9187 18.332C64.2187 17.924 64.6387 17.612 65.1787 17.396C65.7187 17.168 66.3427 17.054 67.0507 17.054C67.5787 17.054 68.0767 17.12 68.5447 17.252C69.0127 17.384 69.4447 17.582 69.8407 17.846C69.9967 17.93 70.0987 18.044 70.1467 18.188C70.1947 18.32 70.2007 18.452 70.1647 18.584C70.1407 18.716 70.0807 18.836 69.9847 18.944C69.8887 19.04 69.7687 19.1 69.6247 19.124C69.4927 19.136 69.3427 19.1 69.1747 19.016C68.8147 18.788 68.4547 18.626 68.0947 18.53C67.7467 18.434 67.3987 18.386 67.0507 18.386C66.4147 18.386 65.9347 18.506 65.6107 18.746C65.2987 18.974 65.1427 19.286 65.1427 19.682C65.1427 19.982 65.2387 20.228 65.4307 20.42C65.6227 20.612 65.9227 20.75 66.3307 20.834L68.0407 21.176C68.8207 21.332 69.4087 21.596 69.8047 21.968C70.2127 22.34 70.4167 22.844 70.4167 23.48C70.4167 24.308 70.0867 24.962 69.4267 25.442C68.7667 25.922 67.8907 26.162 66.7987 26.162ZM76.3815 26.162C75.4215 26.162 74.5935 25.982 73.8975 25.622C73.2135 25.25 72.6795 24.728 72.2955 24.056C71.9235 23.372 71.7375 22.562 71.7375 21.626C71.7375 20.714 71.9235 19.916 72.2955 19.232C72.6675 18.548 73.1775 18.014 73.8255 17.63C74.4735 17.246 75.2115 17.054 76.0395 17.054C76.6515 17.054 77.1975 17.156 77.6775 17.36C78.1575 17.552 78.5655 17.84 78.9015 18.224C79.2495 18.596 79.5075 19.052 79.6755 19.592C79.8555 20.132 79.9455 20.738 79.9455 21.41C79.9455 21.614 79.8855 21.77 79.7655 21.878C79.6455 21.974 79.4655 22.022 79.2255 22.022H73.1775V20.906H78.7215L78.4155 21.158C78.4155 20.558 78.3255 20.048 78.1455 19.628C77.9775 19.208 77.7195 18.89 77.3715 18.674C77.0355 18.446 76.6155 18.332 76.1115 18.332C75.5475 18.332 75.0675 18.464 74.6715 18.728C74.2875 18.992 73.9935 19.358 73.7895 19.826C73.5855 20.294 73.4835 20.84 73.4835 21.464V21.572C73.4835 22.628 73.7295 23.426 74.2215 23.966C74.7255 24.494 75.4515 24.758 76.3995 24.758C76.7595 24.758 77.1375 24.71 77.5335 24.614C77.9415 24.518 78.3255 24.356 78.6855 24.128C78.8895 24.008 79.0695 23.954 79.2255 23.966C79.3935 23.978 79.5255 24.032 79.6215 24.128C79.7295 24.224 79.7955 24.344 79.8195 24.488C79.8435 24.632 79.8195 24.782 79.7475 24.938C79.6755 25.082 79.5495 25.214 79.3695 25.334C78.9615 25.61 78.4875 25.82 77.9475 25.964C77.4075 26.096 76.8855 26.162 76.3815 26.162ZM87.2495 26.126C86.9615 26.126 86.7395 26.048 86.5835 25.892C86.4275 25.724 86.3495 25.496 86.3495 25.208V18.008C86.3495 17.708 86.4275 17.48 86.5835 17.324C86.7395 17.168 86.9555 17.09 87.2315 17.09C87.5195 17.09 87.7355 17.168 87.8795 17.324C88.0355 17.48 88.1135 17.708 88.1135 18.008V19.484L87.9155 19.088C88.1555 18.452 88.5275 17.954 89.0315 17.594C89.5355 17.234 90.1415 17.054 90.8495 17.054C91.5815 17.054 92.1755 17.228 92.6315 17.576C93.0875 17.924 93.3995 18.458 93.5675 19.178H93.3155C93.5435 18.518 93.9335 18.002 94.4855 17.63C95.0375 17.246 95.6795 17.054 96.4115 17.054C97.0835 17.054 97.6355 17.186 98.0675 17.45C98.4995 17.702 98.8235 18.092 99.0395 18.62C99.2555 19.136 99.3635 19.79 99.3635 20.582V25.208C99.3635 25.496 99.2795 25.724 99.1115 25.892C98.9555 26.048 98.7335 26.126 98.4455 26.126C98.1575 26.126 97.9355 26.048 97.7795 25.892C97.6235 25.724 97.5455 25.496 97.5455 25.208V20.672C97.5455 19.928 97.4135 19.382 97.1495 19.034C96.8975 18.686 96.4775 18.512 95.8895 18.512C95.2295 18.512 94.7075 18.74 94.3235 19.196C93.9395 19.652 93.7475 20.282 93.7475 21.086V25.208C93.7475 25.496 93.6695 25.724 93.5135 25.892C93.3575 26.048 93.1355 26.126 92.8475 26.126C92.5595 26.126 92.3315 26.048 92.1635 25.892C92.0075 25.724 91.9295 25.496 91.9295 25.208V20.672C91.9295 19.928 91.8035 19.382 91.5515 19.034C91.2995 18.686 90.8795 18.512 90.2915 18.512C89.6315 18.512 89.1095 18.74 88.7255 19.196C88.3535 19.652 88.1675 20.282 88.1675 21.086V25.208C88.1675 25.82 87.8615 26.126 87.2495 26.126ZM104.533 26.162C103.921 26.162 103.369 26.042 102.877 25.802C102.397 25.562 102.019 25.238 101.743 24.83C101.467 24.422 101.329 23.96 101.329 23.444C101.329 22.796 101.491 22.286 101.815 21.914C102.151 21.53 102.697 21.26 103.453 21.104C104.221 20.936 105.253 20.852 106.549 20.852H107.395V21.968H106.567C105.703 21.968 105.019 22.01 104.515 22.094C104.011 22.178 103.651 22.322 103.435 22.526C103.231 22.718 103.129 22.988 103.129 23.336C103.129 23.792 103.285 24.164 103.597 24.452C103.909 24.728 104.341 24.866 104.893 24.866C105.337 24.866 105.727 24.764 106.063 24.56C106.399 24.344 106.663 24.056 106.855 23.696C107.059 23.336 107.161 22.922 107.161 22.454V20.384C107.161 19.7 107.017 19.208 106.729 18.908C106.441 18.608 105.967 18.458 105.307 18.458C104.923 18.458 104.521 18.506 104.101 18.602C103.693 18.698 103.267 18.86 102.823 19.088C102.619 19.184 102.445 19.214 102.301 19.178C102.157 19.142 102.043 19.064 101.959 18.944C101.875 18.812 101.827 18.674 101.815 18.53C101.815 18.374 101.851 18.224 101.923 18.08C102.007 17.936 102.145 17.828 102.337 17.756C102.865 17.504 103.387 17.324 103.903 17.216C104.419 17.108 104.905 17.054 105.361 17.054C106.165 17.054 106.825 17.18 107.341 17.432C107.869 17.684 108.259 18.068 108.511 18.584C108.763 19.1 108.889 19.766 108.889 20.582V25.208C108.889 25.496 108.817 25.724 108.673 25.892C108.529 26.048 108.319 26.126 108.043 26.126C107.779 26.126 107.569 26.048 107.413 25.892C107.257 25.724 107.179 25.496 107.179 25.208V24.038H107.341C107.245 24.482 107.065 24.866 106.801 25.19C106.549 25.502 106.231 25.742 105.847 25.91C105.463 26.078 105.025 26.162 104.533 26.162ZM114.957 26.162C114.237 26.162 113.631 26.036 113.139 25.784C112.647 25.532 112.281 25.16 112.041 24.668C111.801 24.176 111.681 23.576 111.681 22.868V18.62H110.601C110.361 18.62 110.175 18.56 110.043 18.44C109.911 18.308 109.845 18.134 109.845 17.918C109.845 17.69 109.911 17.516 110.043 17.396C110.175 17.276 110.361 17.216 110.601 17.216H111.681V15.362C111.681 15.062 111.759 14.834 111.915 14.678C112.083 14.522 112.311 14.444 112.599 14.444C112.887 14.444 113.109 14.522 113.265 14.678C113.421 14.834 113.499 15.062 113.499 15.362V17.216H115.605C115.845 17.216 116.031 17.276 116.163 17.396C116.295 17.516 116.361 17.69 116.361 17.918C116.361 18.134 116.295 18.308 116.163 18.44C116.031 18.56 115.845 18.62 115.605 18.62H113.499V22.724C113.499 23.36 113.631 23.84 113.895 24.164C114.171 24.488 114.615 24.65 115.227 24.65C115.443 24.65 115.629 24.632 115.785 24.596C115.953 24.548 116.091 24.518 116.199 24.506C116.331 24.506 116.439 24.554 116.523 24.65C116.607 24.734 116.649 24.902 116.649 25.154C116.649 25.334 116.613 25.502 116.541 25.658C116.481 25.814 116.367 25.916 116.199 25.964C116.055 26.012 115.857 26.054 115.605 26.09C115.365 26.138 115.149 26.162 114.957 26.162ZM121.642 26.162C120.682 26.162 119.854 25.982 119.158 25.622C118.474 25.25 117.94 24.728 117.556 24.056C117.184 23.372 116.998 22.562 116.998 21.626C116.998 20.714 117.184 19.916 117.556 19.232C117.928 18.548 118.438 18.014 119.086 17.63C119.734 17.246 120.472 17.054 121.3 17.054C121.912 17.054 122.458 17.156 122.938 17.36C123.418 17.552 123.826 17.84 124.162 18.224C124.51 18.596 124.768 19.052 124.936 19.592C125.116 20.132 125.206 20.738 125.206 21.41C125.206 21.614 125.146 21.77 125.026 21.878C124.906 21.974 124.726 22.022 124.486 22.022H118.438V20.906H123.982L123.676 21.158C123.676 20.558 123.586 20.048 123.406 19.628C123.238 19.208 122.98 18.89 122.632 18.674C122.296 18.446 121.876 18.332 121.372 18.332C120.808 18.332 120.328 18.464 119.932 18.728C119.548 18.992 119.254 19.358 119.05 19.826C118.846 20.294 118.744 20.84 118.744 21.464V21.572C118.744 22.628 118.99 23.426 119.482 23.966C119.986 24.494 120.712 24.758 121.66 24.758C122.02 24.758 122.398 24.71 122.794 24.614C123.202 24.518 123.586 24.356 123.946 24.128C124.15 24.008 124.33 23.954 124.486 23.966C124.654 23.978 124.786 24.032 124.882 24.128C124.99 24.224 125.056 24.344 125.08 24.488C125.104 24.632 125.08 24.782 125.008 24.938C124.936 25.082 124.81 25.214 124.63 25.334C124.222 25.61 123.748 25.82 123.208 25.964C122.668 26.096 122.146 26.162 121.642 26.162ZM127.944 26.126C127.656 26.126 127.434 26.048 127.278 25.892C127.122 25.724 127.044 25.496 127.044 25.208V18.008C127.044 17.708 127.122 17.48 127.278 17.324C127.434 17.168 127.65 17.09 127.926 17.09C128.214 17.09 128.43 17.168 128.574 17.324C128.73 17.48 128.808 17.708 128.808 18.008V19.484L128.61 19.088C128.85 18.452 129.222 17.954 129.726 17.594C130.23 17.234 130.836 17.054 131.544 17.054C132.276 17.054 132.87 17.228 133.326 17.576C133.782 17.924 134.094 18.458 134.262 19.178H134.01C134.238 18.518 134.628 18.002 135.18 17.63C135.732 17.246 136.374 17.054 137.106 17.054C137.778 17.054 138.33 17.186 138.762 17.45C139.194 17.702 139.518 18.092 139.734 18.62C139.95 19.136 140.058 19.79 140.058 20.582V25.208C140.058 25.496 139.974 25.724 139.806 25.892C139.65 26.048 139.428 26.126 139.14 26.126C138.852 26.126 138.63 26.048 138.474 25.892C138.318 25.724 138.24 25.496 138.24 25.208V20.672C138.24 19.928 138.108 19.382 137.844 19.034C137.592 18.686 137.172 18.512 136.584 18.512C135.924 18.512 135.402 18.74 135.018 19.196C134.634 19.652 134.442 20.282 134.442 21.086V25.208C134.442 25.496 134.364 25.724 134.208 25.892C134.052 26.048 133.83 26.126 133.542 26.126C133.254 26.126 133.026 26.048 132.858 25.892C132.702 25.724 132.624 25.496 132.624 25.208V20.672C132.624 19.928 132.498 19.382 132.246 19.034C131.994 18.686 131.574 18.512 130.986 18.512C130.326 18.512 129.804 18.74 129.42 19.196C129.048 19.652 128.862 20.282 128.862 21.086V25.208C128.862 25.82 128.556 26.126 127.944 26.126ZM145.227 26.162C144.615 26.162 144.063 26.042 143.571 25.802C143.091 25.562 142.713 25.238 142.437 24.83C142.161 24.422 142.023 23.96 142.023 23.444C142.023 22.796 142.185 22.286 142.509 21.914C142.845 21.53 143.391 21.26 144.147 21.104C144.915 20.936 145.947 20.852 147.243 20.852H148.089V21.968H147.261C146.397 21.968 145.713 22.01 145.209 22.094C144.705 22.178 144.345 22.322 144.129 22.526C143.925 22.718 143.823 22.988 143.823 23.336C143.823 23.792 143.979 24.164 144.291 24.452C144.603 24.728 145.035 24.866 145.587 24.866C146.031 24.866 146.421 24.764 146.757 24.56C147.093 24.344 147.357 24.056 147.549 23.696C147.753 23.336 147.855 22.922 147.855 22.454V20.384C147.855 19.7 147.711 19.208 147.423 18.908C147.135 18.608 146.661 18.458 146.001 18.458C145.617 18.458 145.215 18.506 144.795 18.602C144.387 18.698 143.961 18.86 143.517 19.088C143.313 19.184 143.139 19.214 142.995 19.178C142.851 19.142 142.737 19.064 142.653 18.944C142.569 18.812 142.521 18.674 142.509 18.53C142.509 18.374 142.545 18.224 142.617 18.08C142.701 17.936 142.839 17.828 143.031 17.756C143.559 17.504 144.081 17.324 144.597 17.216C145.113 17.108 145.599 17.054 146.055 17.054C146.859 17.054 147.519 17.18 148.035 17.432C148.563 17.684 148.953 18.068 149.205 18.584C149.457 19.1 149.583 19.766 149.583 20.582V25.208C149.583 25.496 149.511 25.724 149.367 25.892C149.223 26.048 149.013 26.126 148.737 26.126C148.473 26.126 148.263 26.048 148.107 25.892C147.951 25.724 147.873 25.496 147.873 25.208V24.038H148.035C147.939 24.482 147.759 24.866 147.495 25.19C147.243 25.502 146.925 25.742 146.541 25.91C146.157 26.078 145.719 26.162 145.227 26.162ZM146.793 15.956C146.697 16.1 146.577 16.184 146.433 16.208C146.301 16.232 146.169 16.208 146.037 16.136C145.905 16.064 145.809 15.962 145.749 15.83C145.701 15.698 145.713 15.554 145.785 15.398L147.243 12.572C147.339 12.38 147.459 12.254 147.603 12.194C147.759 12.134 147.915 12.128 148.071 12.176C148.239 12.212 148.377 12.284 148.485 12.392C148.605 12.5 148.677 12.638 148.701 12.806C148.725 12.962 148.683 13.118 148.575 13.274L146.793 15.956ZM155.651 26.162C154.931 26.162 154.325 26.036 153.833 25.784C153.341 25.532 152.975 25.16 152.735 24.668C152.495 24.176 152.375 23.576 152.375 22.868V18.62H151.295C151.055 18.62 150.869 18.56 150.737 18.44C150.605 18.308 150.539 18.134 150.539 17.918C150.539 17.69 150.605 17.516 150.737 17.396C150.869 17.276 151.055 17.216 151.295 17.216H152.375V15.362C152.375 15.062 152.453 14.834 152.609 14.678C152.777 14.522 153.005 14.444 153.293 14.444C153.581 14.444 153.803 14.522 153.959 14.678C154.115 14.834 154.193 15.062 154.193 15.362V17.216H156.299C156.539 17.216 156.725 17.276 156.857 17.396C156.989 17.516 157.055 17.69 157.055 17.918C157.055 18.134 156.989 18.308 156.857 18.44C156.725 18.56 156.539 18.62 156.299 18.62H154.193V22.724C154.193 23.36 154.325 23.84 154.589 24.164C154.865 24.488 155.309 24.65 155.921 24.65C156.137 24.65 156.323 24.632 156.479 24.596C156.647 24.548 156.785 24.518 156.893 24.506C157.025 24.506 157.133 24.554 157.217 24.65C157.301 24.734 157.343 24.902 157.343 25.154C157.343 25.334 157.307 25.502 157.235 25.658C157.175 25.814 157.061 25.916 156.893 25.964C156.749 26.012 156.551 26.054 156.299 26.09C156.059 26.138 155.843 26.162 155.651 26.162ZM159.36 26.108C159.072 26.108 158.85 26.024 158.694 25.856C158.538 25.676 158.46 25.43 158.46 25.118V18.098C158.46 17.786 158.538 17.546 158.694 17.378C158.85 17.21 159.072 17.126 159.36 17.126C159.648 17.126 159.87 17.21 160.026 17.378C160.194 17.546 160.278 17.786 160.278 18.098V25.118C160.278 25.43 160.2 25.676 160.044 25.856C159.888 26.024 159.66 26.108 159.36 26.108ZM159.36 15.254C159 15.254 158.718 15.164 158.514 14.984C158.322 14.804 158.226 14.552 158.226 14.228C158.226 13.892 158.322 13.64 158.514 13.472C158.718 13.292 159 13.202 159.36 13.202C159.72 13.202 159.996 13.292 160.188 13.472C160.392 13.64 160.494 13.892 160.494 14.228C160.494 14.552 160.392 14.804 160.188 14.984C159.996 15.164 159.72 15.254 159.36 15.254ZM166.527 26.162C165.627 26.162 164.847 25.976 164.187 25.604C163.539 25.22 163.035 24.686 162.675 24.002C162.315 23.306 162.135 22.49 162.135 21.554C162.135 20.858 162.237 20.234 162.441 19.682C162.645 19.118 162.933 18.644 163.305 18.26C163.689 17.876 164.151 17.582 164.691 17.378C165.243 17.162 165.855 17.054 166.527 17.054C166.947 17.054 167.385 17.12 167.841 17.252C168.309 17.372 168.741 17.576 169.137 17.864C169.293 17.96 169.389 18.08 169.425 18.224C169.473 18.356 169.479 18.494 169.443 18.638C169.419 18.782 169.353 18.908 169.245 19.016C169.149 19.112 169.029 19.172 168.885 19.196C168.741 19.208 168.585 19.166 168.417 19.07C168.129 18.866 167.835 18.722 167.535 18.638C167.235 18.542 166.947 18.494 166.671 18.494C166.239 18.494 165.855 18.566 165.519 18.71C165.195 18.842 164.919 19.04 164.691 19.304C164.463 19.556 164.289 19.874 164.169 20.258C164.061 20.642 164.007 21.08 164.007 21.572C164.007 22.556 164.235 23.33 164.691 23.894C165.159 24.446 165.819 24.722 166.671 24.722C166.947 24.722 167.235 24.68 167.535 24.596C167.835 24.512 168.129 24.368 168.417 24.164C168.585 24.068 168.741 24.032 168.885 24.056C169.029 24.08 169.143 24.146 169.227 24.254C169.323 24.35 169.383 24.47 169.407 24.614C169.443 24.746 169.437 24.884 169.389 25.028C169.341 25.172 169.239 25.292 169.083 25.388C168.699 25.664 168.279 25.862 167.823 25.982C167.379 26.102 166.947 26.162 166.527 26.162ZM173.617 26.162C173.005 26.162 172.453 26.042 171.961 25.802C171.481 25.562 171.103 25.238 170.827 24.83C170.551 24.422 170.413 23.96 170.413 23.444C170.413 22.796 170.575 22.286 170.899 21.914C171.235 21.53 171.781 21.26 172.537 21.104C173.305 20.936 174.337 20.852 175.633 20.852H176.479V21.968H175.651C174.787 21.968 174.103 22.01 173.599 22.094C173.095 22.178 172.735 22.322 172.519 22.526C172.315 22.718 172.213 22.988 172.213 23.336C172.213 23.792 172.369 24.164 172.681 24.452C172.993 24.728 173.425 24.866 173.977 24.866C174.421 24.866 174.811 24.764 175.147 24.56C175.483 24.344 175.747 24.056 175.939 23.696C176.143 23.336 176.245 22.922 176.245 22.454V20.384C176.245 19.7 176.101 19.208 175.813 18.908C175.525 18.608 175.051 18.458 174.391 18.458C174.007 18.458 173.605 18.506 173.185 18.602C172.777 18.698 172.351 18.86 171.907 19.088C171.703 19.184 171.529 19.214 171.385 19.178C171.241 19.142 171.127 19.064 171.043 18.944C170.959 18.812 170.911 18.674 170.899 18.53C170.899 18.374 170.935 18.224 171.007 18.08C171.091 17.936 171.229 17.828 171.421 17.756C171.949 17.504 172.471 17.324 172.987 17.216C173.503 17.108 173.989 17.054 174.445 17.054C175.249 17.054 175.909 17.18 176.425 17.432C176.953 17.684 177.343 18.068 177.595 18.584C177.847 19.1 177.973 19.766 177.973 20.582V25.208C177.973 25.496 177.901 25.724 177.757 25.892C177.613 26.048 177.403 26.126 177.127 26.126C176.863 26.126 176.653 26.048 176.497 25.892C176.341 25.724 176.263 25.496 176.263 25.208V24.038H176.425C176.329 24.482 176.149 24.866 175.885 25.19C175.633 25.502 175.315 25.742 174.931 25.91C174.547 26.078 174.109 26.162 173.617 26.162Z" fill="#061D44"/>
<defs>
<clipPath id="clip0_28_21">
<rect width="40" height="40" fill="white"/>
</clipPath>
</defs>
</svg>
